<svg fill="#fff" stroke-miterlimit="10" stroke-width="3" viewBox="0 0 96 96" xmlns="http://www.w3.org/2000/svg">
    <style type="text/css">
        .ea-icon-filetype-base-fill { fill: oklch(55.4% 0.046 257.417); }
        .ea-icon-filetype-base-stroke { stroke: oklch(55.4% 0.046 257.417); }
        @media (prefers-color-scheme: dark) {
            .ea-icon-filetype-base-fill { fill: oklch(20.5% 0 0); }
            .ea-icon-filetype-base-stroke { stroke: oklch(20.5% 0 0); }
        }
    </style>
    <path d="m60.9579 8h-42.688c-.7014 0-1.2699.5685-1.2699 1.2698v77.4603c0 .7014.5685 1.2699 1.2698 1.2699h59.6825c.7013 0 1.2698-.5685 1.2698-1.2698v-60.4659c0-.7858-.3122-1.5395-.8678-2.0951l-15.3013-15.3014c-.5556-.5556-1.3093-.8678-2.0951-.8678z"/><path d="m79.1211 24.707-17.8281-17.8281c-.5664-.5669-1.3194-.8789-2.1211-.8789h-40.1719c-1.6543 0-3 1.3457-3 3v78c0 1.6543 1.3457 3 3 3h58c1.6543 0 3-1.3457 3-3v-60.1719c0-.8008-.3125-1.5542-.8789-2.1211zm-19.1211-16.2929 17.5857 17.5859h-16.5857c-.5518 0-1-.4482-1-1zm17 79.5859h-58c-.5518 0-1-.4482-1-1v-78c0-.5518.4482-1 1-1h39v17c0 1.6543 1.3457 3 3 3h17v59c0 .5518-.4482 1-1 1z" stroke-width="1" class="ea-icon-filetype-base-fill ea-icon-filetype-base-stroke"/><path d="m71 37h-46c-.5523 0-1-.4477-1-1 0-.5523.4477-1 1-1h46c.5523 0 1 .4477 1 1 0 .5523-.4477 1-1 1zm0 6h-46c-.5523 0-1-.4477-1-1 0-.5523.4477-1 1-1h46c.5523 0 1 .4477 1 1 0 .5523-.4477 1-1 1zm0 6h-46c-.5523 0-1-.4477-1-1 0-.5523.4477-1 1-1h46c.5523 0 1 .4477 1 1 0 .5523-.4477 1-1 1zm0 6h-46c-.5523 0-1-.4477-1-1 0-.5523.4477-1 1-1h46c.5523 0 1 .4477 1 1 0 .5523-.4477 1-1 1z" stroke-width="0" class="ea-icon-filetype-base-fill"/><path d="m66.0467 63.0028 13.9589.0384c1.1046.003 1.9975.9009 1.9945 2.0055l-.0357 12.9589c-.003 1.1046-.9009 1.9975-2.0055 1.9945l-13.9589-.0384c-.5523-.0015-.9988-.4505-.9972-1.0028l.0411-14.9589c.0015-.5523.4505-.9988 1.0028-.9972zm-35.0467 15.9945c0 .5534-.4494 1.0015-1.0027 1l-14.0343-.0384c-1.1069-.003-1.966-.9009-1.9629-2.0055v-12.9589c.003-1.1046.9028-1.9975 2.0097-1.9945l13.993.0384c.5512.0015.9973.4488.9973 1v14.9589z" fill="#d65532"/><path d="m58.5 80.5h-21c-1.1046 0-2-.8954-2-2v-14c0-1.1046.8954-2 2-2h21c1.1046 0 2 .8954 2 2v14c0 1.1046-.8954 2-2 2z" fill="none" stroke="#d65532" stroke-linecap="round" stroke-linejoin="round"/></svg>
