<svg xmlns="http://www.w3.org/2000/svg" viewBox="0 0 512 512" fill="currentColor"><!--! Font Awesome Free 6.6.0 by @fontawesome - https://fontawesome.com License - https://fontawesome.com/license/free (Icons: CC BY 4.0, Fonts: SIL OFL 1.1, Code: MIT License) Copyright 2024 Fonticons, Inc. --><path d="M288 32c0-17.7-14.3-32-32-32s-32 14.3-32 32l0 242.7-73.4-73.4c-12.5-12.5-32.8-12.5-45.3 0s-12.5 32.8 0 45.3l128 128c12.5 12.5 32.8 12.5 45.3 0l128-128c12.5-12.5 12.5-32.8 0-45.3s-32.8-12.5-45.3 0L288 274.7 288 32zM64 352c-17.7 0-32 14.3-32 32l0 32c0 53 43 96 96 96l256 0c53 0 96-43 96-96l0-32c0-17.7-14.3-32-32-32s-32 14.3-32 32l0 32c0 17.7-14.3 32-32 32L128 448c-17.7 0-32-14.3-32-32l0-32c0-17.7-14.3-32-32-32z"/></svg>
